<svg xmlns="http://www.w3.org/2000/svg" width="1501.036" height="1080" viewBox="0 0 1501.036 1080">
  <path id="background-image" d="M1071.257,48.9C779.317-24.773,443.2-17.67,155.365,87.08,73.839,116.671-7.231,175.85.515,245.685c4.553,39.947,65.583,54.15,110.671,63.62,64.674,13.315,100.672,66.936,139.84,111.912,23.68,27.223-13.345,93.169-41.582,111.514-59.208,38.765-97.72,55.407-129.605,113.4-23.226,42.317,34.283,166.033,57.512,203.318,41.9,67.761,113.872,60.033,173.077,120.695,97.009,99.425,171.488,94.9,343.189,107.626,136.632,10.356,293.758-14.5,388.945-93.8,56.019-46.755,106.715-140.1,173.211-181.23,74.238-45.568,172.807-84.513,239.5-138.515,59.4-68.313,54-194.408,23.221-278.921C1460.672,230.319,1253.431,94.771,1071.257,48.9Z" transform="translate(0 -0.001)" fill="#cbecff"/>
</svg>
